<svg width="932" height="400" xmlns="http://www.w3.org/2000/svg" xmlns:xlink="http://www.w3.org/1999/xlink" version="1.1" baseProfile="full" viewBox="0 0 932 400">
<rect width="932" height="400" x="0" y="0" id="0" fill="none" fill-opacity="1"></rect>
<path d="M64 319.5L900 319.5" fill="none" stroke="var(--gl-chart-axis-line-color)"></path>
<path d="M64 271.5L900 271.5" fill="none" stroke="var(--gl-chart-axis-line-color)"></path>
<path d="M64 222.5L900 222.5" fill="none" stroke="var(--gl-chart-axis-line-color)"></path>
<path d="M64 174.5L900 174.5" fill="none" stroke="var(--gl-chart-axis-line-color)"></path>
<path d="M64 126.5L900 126.5" fill="none" stroke="var(--gl-chart-axis-line-color)"></path>
<path d="M64 78.5L900 78.5" fill="none" stroke="var(--gl-chart-axis-line-color)"></path>
<path d="M64 30.5L900 30.5" fill="none" stroke="var(--gl-chart-axis-line-color)"></path>
<text dominant-baseline="central" text-anchor="middle" style="font-size:12px;font-family:Microsoft YaHei;font-weight:bold;" y="-6" transform="matrix(0,-1,1,0,14,174.5)" fill="var(--gl-text-color-default)">Vulnerabilities</text>
<text dominant-baseline="central" text-anchor="middle" style="font-size:12px;font-family:Microsoft YaHei;font-weight:bold;" y="6" transform="translate(482 386)" fill="var(--gl-text-color-default)">Date</text>
<path d="M64 319.5L59 319.5" fill="none" stroke="var(--gl-chart-axis-line-color)"></path>
<path d="M64 271.5L59 271.5" fill="none" stroke="var(--gl-chart-axis-line-color)"></path>
<path d="M64 222.5L59 222.5" fill="none" stroke="var(--gl-chart-axis-line-color)"></path>
<path d="M64 174.5L59 174.5" fill="none" stroke="var(--gl-chart-axis-line-color)"></path>
<path d="M64 126.5L59 126.5" fill="none" stroke="var(--gl-chart-axis-line-color)"></path>
<path d="M64 78.5L59 78.5" fill="none" stroke="var(--gl-chart-axis-line-color)"></path>
<path d="M64 30.5L59 30.5" fill="none" stroke="var(--gl-chart-axis-line-color)"></path>
<path d="M119.5 319L119.5 324" fill="none" stroke="var(--gl-chart-axis-line-color)"></path>
<path d="M231.5 319L231.5 324" fill="none" stroke="var(--gl-chart-axis-line-color)"></path>
<path d="M342.5 319L342.5 324" fill="none" stroke="var(--gl-chart-axis-line-color)"></path>
<path d="M454.5 319L454.5 324" fill="none" stroke="var(--gl-chart-axis-line-color)"></path>
<path d="M565.5 319L565.5 324" fill="none" stroke="var(--gl-chart-axis-line-color)"></path>
<path d="M677.5 319L677.5 324" fill="none" stroke="var(--gl-chart-axis-line-color)"></path>
<path d="M788.5 319L788.5 324" fill="none" stroke="var(--gl-chart-axis-line-color)"></path>
<path d="M900.5 319L900.5 324" fill="none" stroke="var(--gl-chart-axis-line-color)"></path>
<text dominant-baseline="central" text-anchor="end" style="font-size:12px;font-family:Microsoft YaHei;" transform="translate(56 319)" fill="var(--gl-chart-axis-text-color)">0</text>
<text dominant-baseline="central" text-anchor="end" style="font-size:12px;font-family:Microsoft YaHei;" transform="translate(56 270.8333)" fill="var(--gl-chart-axis-text-color)">1</text>
<text dominant-baseline="central" text-anchor="end" style="font-size:12px;font-family:Microsoft YaHei;" transform="translate(56 222.6667)" fill="var(--gl-chart-axis-text-color)">2</text>
<text dominant-baseline="central" text-anchor="end" style="font-size:12px;font-family:Microsoft YaHei;" transform="translate(56 174.5)" fill="var(--gl-chart-axis-text-color)">3</text>
<text dominant-baseline="central" text-anchor="end" style="font-size:12px;font-family:Microsoft YaHei;" transform="translate(56 126.3333)" fill="var(--gl-chart-axis-text-color)">4</text>
<text dominant-baseline="central" text-anchor="end" style="font-size:12px;font-family:Microsoft YaHei;" transform="translate(56 78.1667)" fill="var(--gl-chart-axis-text-color)">5</text>
<text dominant-baseline="central" text-anchor="end" style="font-size:12px;font-family:Microsoft YaHei;" transform="translate(56 30)" fill="var(--gl-chart-axis-text-color)">6</text>
<text dominant-baseline="central" text-anchor="middle" style="font-size:12px;font-family:Microsoft YaHei;" y="6" transform="translate(119.7333 327)" fill="var(--gl-chart-axis-text-color)">2025-03-14</text>
<text dominant-baseline="central" text-anchor="middle" style="font-size:12px;font-family:Microsoft YaHei;" y="6" transform="translate(231.2 327)" fill="var(--gl-chart-axis-text-color)">2025-03-18</text>
<text dominant-baseline="central" text-anchor="middle" style="font-size:12px;font-family:Microsoft YaHei;" y="6" transform="translate(342.6667 327)" fill="var(--gl-chart-axis-text-color)">2025-03-22</text>
<text dominant-baseline="central" text-anchor="middle" style="font-size:12px;font-family:Microsoft YaHei;" y="6" transform="translate(454.1333 327)" fill="var(--gl-chart-axis-text-color)">2025-03-26</text>
<text dominant-baseline="central" text-anchor="middle" style="font-size:12px;font-family:Microsoft YaHei;" y="6" transform="translate(565.6 327)" fill="var(--gl-chart-axis-text-color)">2025-03-30</text>
<text dominant-baseline="central" text-anchor="middle" style="font-size:12px;font-family:Microsoft YaHei;" y="6" transform="translate(677.0667 327)" fill="var(--gl-chart-axis-text-color)">2025-04-03</text>
<text dominant-baseline="central" text-anchor="middle" style="font-size:12px;font-family:Microsoft YaHei;" y="6" transform="translate(788.5333 327)" fill="var(--gl-chart-axis-text-color)">2025-04-07</text>
<text dominant-baseline="central" text-anchor="middle" style="font-size:12px;font-family:Microsoft YaHei;" y="6" transform="translate(900 327)" fill="var(--gl-chart-axis-text-color)">2025-04-11</text>
<g clip-path="url(#zr0-c0)">
<path d="M64 319L91.8667 319L119.7333 319L147.6 319L175.4667 319L203.3333 319L231.2 319L259.0667 319L286.9333 319L314.8 319L342.6667 319L370.5333 319L398.4 319L426.2667 319L454.1333 319L482 319L509.8667 319L537.7333 319L565.6 319L593.4667 319L621.3333 319L649.2 319L677.0667 319L704.9333 319L732.8 319L760.6667 319L788.5333 319L816.4 319L844.2667 319L872.1334 319L900 222.6667" fill="none" stroke="rgb(102,14,0)" stroke-width="2" stroke-linejoin="bevel"></path>
</g>
<g clip-path="url(#zr0-c1)">
<path d="M64 319L91.8667 319L119.7333 319L147.6 319L175.4667 319L203.3333 319L231.2 319L259.0667 319L286.9333 319L314.8 319L342.6667 319L370.5333 319L398.4 319L426.2667 319L454.1333 319L482 319L509.8667 319L537.7333 319L565.6 319L593.4667 319L621.3333 319L649.2 319L677.0667 319L704.9333 319L732.8 319L760.6667 319L788.5333 319L816.4 319L844.2667 319L872.1334 319L900 126.3333" fill="none" stroke="rgb(174,24,0)" stroke-width="2" stroke-linejoin="bevel"></path>
</g>
<g clip-path="url(#zr0-c2)">
<path d="M64 319L91.8667 319L119.7333 319L147.6 319L175.4667 319L203.3333 319L231.2 319L259.0667 319L286.9333 319L314.8 319L342.6667 319L370.5333 319L398.4 319L426.2667 319L454.1333 319L482 319L509.8667 319L537.7333 319L565.6 319L593.4667 319L621.3333 319L649.2 319L677.0667 319L704.9333 319L732.8 319L760.6667 319L788.5333 319L816.4 319L844.2667 319L872.1334 319L900 30" fill="none" stroke="rgb(158,84,0)" stroke-width="2" stroke-linejoin="bevel"></path>
</g>
<g clip-path="url(#zr0-c3)">
<path d="M64 319L91.8667 319L119.7333 319L147.6 319L175.4667 319L203.3333 319L231.2 319L259.0667 319L286.9333 319L314.8 319L342.6667 319L370.5333 319L398.4 319L426.2667 319L454.1333 319L482 319L509.8667 319L537.7333 319L565.6 319L593.4667 319L621.3333 319L649.2 319L677.0667 319L704.9333 319L732.8 319L760.6667 319L788.5333 319L816.4 319L844.2667 319L872.1334 319L900 319" fill="none" stroke="rgb(193,125,16)" stroke-width="2" stroke-linejoin="bevel"></path>
</g>
<g clip-path="url(#zr0-c4)">
<path d="M64 319L91.8667 319L119.7333 319L147.6 319L175.4667 319L203.3333 319L231.2 319L259.0667 319L286.9333 319L314.8 319L342.6667 319L370.5333 319L398.4 319L426.2667 319L454.1333 319L482 319L509.8667 319L537.7333 319L565.6 319L593.4667 319L621.3333 319L649.2 319L677.0667 319L704.9333 319L732.8 319L760.6667 319L788.5333 319L816.4 319L844.2667 319L872.1334 319L900 319" fill="none" stroke="rgb(66,143,220)" stroke-width="2" stroke-linejoin="bevel"></path>
</g>
<g clip-path="url(#zr0-c5)">
<path d="M64 319L91.8667 319L119.7333 319L147.6 319L175.4667 319L203.3333 319L231.2 319L259.0667 319L286.9333 319L314.8 319L342.6667 319L370.5333 319L398.4 319L426.2667 319L454.1333 319L482 319L509.8667 319L537.7333 319L565.6 319L593.4667 319L621.3333 319L649.2 319L677.0667 319L704.9333 319L732.8 319L760.6667 319L788.5333 319L816.4 319L844.2667 319L872.1334 319L900 270.8333" fill="none" stroke="rgb(134,134,134)" stroke-width="2" stroke-linejoin="bevel"></path>
</g>
<path d="M1 0A1 1 0 1 1 1 -0.0001" transform="matrix(3,0,0,3,286.9333,319)" fill="rgb(102,14,0)"></path>
<path d="M1 0A1 1 0 1 1 1 -0.0001" transform="matrix(3,0,0,3,649.2,319)" fill="rgb(102,14,0)"></path>
<path d="M1 0A1 1 0 1 1 1 -0.0001" transform="matrix(3,0,0,3,64,319)" fill="#660e00"></path>
<path d="M1 0A1 1 0 1 1 1 -0.0001" transform="matrix(3,0,0,3,91.8667,319)" fill="#660e00"></path>
<path d="M1 0A1 1 0 1 1 1 -0.0001" transform="matrix(3,0,0,3,119.7333,319)" fill="#660e00"></path>
<path d="M1 0A1 1 0 1 1 1 -0.0001" transform="matrix(3,0,0,3,147.6,319)" fill="#660e00"></path>
<path d="M1 0A1 1 0 1 1 1 -0.0001" transform="matrix(3,0,0,3,175.4667,319)" fill="#660e00"></path>
<path d="M1 0A1 1 0 1 1 1 -0.0001" transform="matrix(3,0,0,3,203.3333,319)" fill="#660e00"></path>
<path d="M1 0A1 1 0 1 1 1 -0.0001" transform="matrix(3,0,0,3,231.2,319)" fill="rgb(102,14,0)"></path>
<path d="M1 0A1 1 0 1 1 1 -0.0001" transform="matrix(3,0,0,3,259.0667,319)" fill="rgb(102,14,0)"></path>
<path d="M1 0A1 1 0 1 1 1 -0.0001" transform="matrix(3,0,0,3,314.8,319)" fill="rgb(102,14,0)"></path>
<path d="M1 0A1 1 0 1 1 1 -0.0001" transform="matrix(3,0,0,3,342.6667,319)" fill="#660e00"></path>
<path d="M1 0A1 1 0 1 1 1 -0.0001" transform="matrix(3,0,0,3,370.5333,319)" fill="#660e00"></path>
<path d="M1 0A1 1 0 1 1 1 -0.0001" transform="matrix(3,0,0,3,398.4,319)" fill="#660e00"></path>
<path d="M1 0A1 1 0 1 1 1 -0.0001" transform="matrix(3,0,0,3,426.2667,319)" fill="#660e00"></path>
<path d="M1 0A1 1 0 1 1 1 -0.0001" transform="matrix(3,0,0,3,454.1333,319)" fill="#660e00"></path>
<path d="M1 0A1 1 0 1 1 1 -0.0001" transform="matrix(3,0,0,3,482,319)" fill="rgb(102,14,0)"></path>
<path d="M1 0A1 1 0 1 1 1 -0.0001" transform="matrix(3,0,0,3,509.8667,319)" fill="#660e00"></path>
<path d="M1 0A1 1 0 1 1 1 -0.0001" transform="matrix(3,0,0,3,537.7333,319)" fill="rgb(102,14,0)"></path>
<path d="M1 0A1 1 0 1 1 1 -0.0001" transform="matrix(3,0,0,3,565.6,319)" fill="rgb(102,14,0)"></path>
<path d="M1 0A1 1 0 1 1 1 -0.0001" transform="matrix(3,0,0,3,593.4667,319)" fill="rgb(102,14,0)"></path>
<path d="M1 0A1 1 0 1 1 1 -0.0001" transform="matrix(3,0,0,3,621.3333,319)" fill="rgb(102,14,0)"></path>
<path d="M1 0A1 1 0 1 1 1 -0.0001" transform="matrix(3,0,0,3,677.0667,319)" fill="#660e00"></path>
<path d="M1 0A1 1 0 1 1 1 -0.0001" transform="matrix(3,0,0,3,704.9333,319)" fill="rgb(102,14,0)"></path>
<path d="M1 0A1 1 0 1 1 1 -0.0001" transform="matrix(3,0,0,3,732.8,319)" fill="rgb(102,14,0)"></path>
<path d="M1 0A1 1 0 1 1 1 -0.0001" transform="matrix(3,0,0,3,760.6667,319)" fill="#660e00"></path>
<path d="M1 0A1 1 0 1 1 1 -0.0001" transform="matrix(3,0,0,3,788.5333,319)" fill="rgb(102,14,0)"></path>
<path d="M1 0A1 1 0 1 1 1 -0.0001" transform="matrix(3,0,0,3,816.4,319)" fill="#660e00"></path>
<path d="M1 0A1 1 0 1 1 1 -0.0001" transform="matrix(3,0,0,3,844.2667,319)" fill="rgb(102,14,0)"></path>
<path d="M1 0A1 1 0 1 1 1 -0.0001" transform="matrix(3,0,0,3,872.1334,319)" fill="rgb(102,14,0)"></path>
<path d="M1 0A1 1 0 1 1 1 -0.0001" transform="matrix(3,0,0,3,900,222.6667)" fill="rgb(102,14,0)"></path>
<path d="M1 0A1 1 0 1 1 1 -0.0001" transform="matrix(3,0,0,3,286.9333,319)" fill="rgb(174,24,0)"></path>
<path d="M1 0A1 1 0 1 1 1 -0.0001" transform="matrix(3,0,0,3,649.2,319)" fill="rgb(174,24,0)"></path>
<path d="M1 0A1 1 0 1 1 1 -0.0001" transform="matrix(3,0,0,3,64,319)" fill="#ae1800"></path>
<path d="M1 0A1 1 0 1 1 1 -0.0001" transform="matrix(3,0,0,3,91.8667,319)" fill="#ae1800"></path>
<path d="M1 0A1 1 0 1 1 1 -0.0001" transform="matrix(3,0,0,3,119.7333,319)" fill="#ae1800"></path>
<path d="M1 0A1 1 0 1 1 1 -0.0001" transform="matrix(3,0,0,3,147.6,319)" fill="#ae1800"></path>
<path d="M1 0A1 1 0 1 1 1 -0.0001" transform="matrix(3,0,0,3,175.4667,319)" fill="#ae1800"></path>
<path d="M1 0A1 1 0 1 1 1 -0.0001" transform="matrix(3,0,0,3,203.3333,319)" fill="#ae1800"></path>
<path d="M1 0A1 1 0 1 1 1 -0.0001" transform="matrix(3,0,0,3,231.2,319)" fill="rgb(174,24,0)"></path>
<path d="M1 0A1 1 0 1 1 1 -0.0001" transform="matrix(3,0,0,3,259.0667,319)" fill="rgb(174,24,0)"></path>
<path d="M1 0A1 1 0 1 1 1 -0.0001" transform="matrix(3,0,0,3,314.8,319)" fill="rgb(174,24,0)"></path>
<path d="M1 0A1 1 0 1 1 1 -0.0001" transform="matrix(3,0,0,3,342.6667,319)" fill="#ae1800"></path>
<path d="M1 0A1 1 0 1 1 1 -0.0001" transform="matrix(3,0,0,3,370.5333,319)" fill="#ae1800"></path>
<path d="M1 0A1 1 0 1 1 1 -0.0001" transform="matrix(3,0,0,3,398.4,319)" fill="#ae1800"></path>
<path d="M1 0A1 1 0 1 1 1 -0.0001" transform="matrix(3,0,0,3,426.2667,319)" fill="#ae1800"></path>
<path d="M1 0A1 1 0 1 1 1 -0.0001" transform="matrix(3,0,0,3,454.1333,319)" fill="#ae1800"></path>
<path d="M1 0A1 1 0 1 1 1 -0.0001" transform="matrix(3,0,0,3,482,319)" fill="rgb(174,24,0)"></path>
<path d="M1 0A1 1 0 1 1 1 -0.0001" transform="matrix(3,0,0,3,509.8667,319)" fill="#ae1800"></path>
<path d="M1 0A1 1 0 1 1 1 -0.0001" transform="matrix(3,0,0,3,537.7333,319)" fill="rgb(174,24,0)"></path>
<path d="M1 0A1 1 0 1 1 1 -0.0001" transform="matrix(3,0,0,3,565.6,319)" fill="rgb(174,24,0)"></path>
<path d="M1 0A1 1 0 1 1 1 -0.0001" transform="matrix(3,0,0,3,593.4667,319)" fill="rgb(174,24,0)"></path>
<path d="M1 0A1 1 0 1 1 1 -0.0001" transform="matrix(3,0,0,3,621.3333,319)" fill="rgb(174,24,0)"></path>
<path d="M1 0A1 1 0 1 1 1 -0.0001" transform="matrix(3,0,0,3,677.0667,319)" fill="#ae1800"></path>
<path d="M1 0A1 1 0 1 1 1 -0.0001" transform="matrix(3,0,0,3,704.9333,319)" fill="rgb(174,24,0)"></path>
<path d="M1 0A1 1 0 1 1 1 -0.0001" transform="matrix(3,0,0,3,732.8,319)" fill="rgb(174,24,0)"></path>
<path d="M1 0A1 1 0 1 1 1 -0.0001" transform="matrix(3,0,0,3,760.6667,319)" fill="#ae1800"></path>
<path d="M1 0A1 1 0 1 1 1 -0.0001" transform="matrix(3,0,0,3,788.5333,319)" fill="rgb(174,24,0)"></path>
<path d="M1 0A1 1 0 1 1 1 -0.0001" transform="matrix(3,0,0,3,816.4,319)" fill="#ae1800"></path>
<path d="M1 0A1 1 0 1 1 1 -0.0001" transform="matrix(3,0,0,3,844.2667,319)" fill="rgb(174,24,0)"></path>
<path d="M1 0A1 1 0 1 1 1 -0.0001" transform="matrix(3,0,0,3,872.1334,319)" fill="rgb(174,24,0)"></path>
<path d="M1 0A1 1 0 1 1 1 -0.0001" transform="matrix(3,0,0,3,900,126.3333)" fill="rgb(174,24,0)"></path>
<path d="M1 0A1 1 0 1 1 1 -0.0001" transform="matrix(3,0,0,3,286.9333,319)" fill="rgb(158,84,0)"></path>
<path d="M1 0A1 1 0 1 1 1 -0.0001" transform="matrix(3,0,0,3,649.2,319)" fill="rgb(158,84,0)"></path>
<path d="M1 0A1 1 0 1 1 1 -0.0001" transform="matrix(3,0,0,3,64,319)" fill="#9e5400"></path>
<path d="M1 0A1 1 0 1 1 1 -0.0001" transform="matrix(3,0,0,3,91.8667,319)" fill="#9e5400"></path>
<path d="M1 0A1 1 0 1 1 1 -0.0001" transform="matrix(3,0,0,3,119.7333,319)" fill="#9e5400"></path>
<path d="M1 0A1 1 0 1 1 1 -0.0001" transform="matrix(3,0,0,3,147.6,319)" fill="#9e5400"></path>
<path d="M1 0A1 1 0 1 1 1 -0.0001" transform="matrix(3,0,0,3,175.4667,319)" fill="#9e5400"></path>
<path d="M1 0A1 1 0 1 1 1 -0.0001" transform="matrix(3,0,0,3,203.3333,319)" fill="#9e5400"></path>
<path d="M1 0A1 1 0 1 1 1 -0.0001" transform="matrix(3,0,0,3,231.2,319)" fill="rgb(158,84,0)"></path>
<path d="M1 0A1 1 0 1 1 1 -0.0001" transform="matrix(3,0,0,3,259.0667,319)" fill="rgb(158,84,0)"></path>
<path d="M1 0A1 1 0 1 1 1 -0.0001" transform="matrix(3,0,0,3,314.8,319)" fill="rgb(158,84,0)"></path>
<path d="M1 0A1 1 0 1 1 1 -0.0001" transform="matrix(3,0,0,3,342.6667,319)" fill="#9e5400"></path>
<path d="M1 0A1 1 0 1 1 1 -0.0001" transform="matrix(3,0,0,3,370.5333,319)" fill="#9e5400"></path>
<path d="M1 0A1 1 0 1 1 1 -0.0001" transform="matrix(3,0,0,3,398.4,319)" fill="#9e5400"></path>
<path d="M1 0A1 1 0 1 1 1 -0.0001" transform="matrix(3,0,0,3,426.2667,319)" fill="#9e5400"></path>
<path d="M1 0A1 1 0 1 1 1 -0.0001" transform="matrix(3,0,0,3,454.1333,319)" fill="#9e5400"></path>
<path d="M1 0A1 1 0 1 1 1 -0.0001" transform="matrix(3,0,0,3,482,319)" fill="rgb(158,84,0)"></path>
<path d="M1 0A1 1 0 1 1 1 -0.0001" transform="matrix(3,0,0,3,509.8667,319)" fill="#9e5400"></path>
<path d="M1 0A1 1 0 1 1 1 -0.0001" transform="matrix(3,0,0,3,537.7333,319)" fill="rgb(158,84,0)"></path>
<path d="M1 0A1 1 0 1 1 1 -0.0001" transform="matrix(3,0,0,3,565.6,319)" fill="rgb(158,84,0)"></path>
<path d="M1 0A1 1 0 1 1 1 -0.0001" transform="matrix(3,0,0,3,593.4667,319)" fill="rgb(158,84,0)"></path>
<path d="M1 0A1 1 0 1 1 1 -0.0001" transform="matrix(3,0,0,3,621.3333,319)" fill="rgb(158,84,0)"></path>
<path d="M1 0A1 1 0 1 1 1 -0.0001" transform="matrix(3,0,0,3,677.0667,319)" fill="#9e5400"></path>
<path d="M1 0A1 1 0 1 1 1 -0.0001" transform="matrix(3,0,0,3,704.9333,319)" fill="rgb(158,84,0)"></path>
<path d="M1 0A1 1 0 1 1 1 -0.0001" transform="matrix(3,0,0,3,732.8,319)" fill="rgb(158,84,0)"></path>
<path d="M1 0A1 1 0 1 1 1 -0.0001" transform="matrix(3,0,0,3,760.6667,319)" fill="#9e5400"></path>
<path d="M1 0A1 1 0 1 1 1 -0.0001" transform="matrix(3,0,0,3,788.5333,319)" fill="rgb(158,84,0)"></path>
<path d="M1 0A1 1 0 1 1 1 -0.0001" transform="matrix(3,0,0,3,816.4,319)" fill="#9e5400"></path>
<path d="M1 0A1 1 0 1 1 1 -0.0001" transform="matrix(3,0,0,3,844.2667,319)" fill="rgb(158,84,0)"></path>
<path d="M1 0A1 1 0 1 1 1 -0.0001" transform="matrix(3,0,0,3,872.1334,319)" fill="rgb(158,84,0)"></path>
<path d="M1 0A1 1 0 1 1 1 -0.0001" transform="matrix(3,0,0,3,900,30)" fill="rgb(158,84,0)"></path>
<path d="M1 0A1 1 0 1 1 1 -0.0001" transform="matrix(3,0,0,3,286.9333,319)" fill="rgb(193,125,16)"></path>
<path d="M1 0A1 1 0 1 1 1 -0.0001" transform="matrix(3,0,0,3,649.2,319)" fill="rgb(193,125,16)"></path>
<path d="M1 0A1 1 0 1 1 1 -0.0001" transform="matrix(3,0,0,3,64,319)" fill="#c17d10"></path>
<path d="M1 0A1 1 0 1 1 1 -0.0001" transform="matrix(3,0,0,3,91.8667,319)" fill="#c17d10"></path>
<path d="M1 0A1 1 0 1 1 1 -0.0001" transform="matrix(3,0,0,3,119.7333,319)" fill="#c17d10"></path>
<path d="M1 0A1 1 0 1 1 1 -0.0001" transform="matrix(3,0,0,3,147.6,319)" fill="#c17d10"></path>
<path d="M1 0A1 1 0 1 1 1 -0.0001" transform="matrix(3,0,0,3,175.4667,319)" fill="#c17d10"></path>
<path d="M1 0A1 1 0 1 1 1 -0.0001" transform="matrix(3,0,0,3,203.3333,319)" fill="#c17d10"></path>
<path d="M1 0A1 1 0 1 1 1 -0.0001" transform="matrix(3,0,0,3,231.2,319)" fill="rgb(193,125,16)"></path>
<path d="M1 0A1 1 0 1 1 1 -0.0001" transform="matrix(3,0,0,3,259.0667,319)" fill="rgb(193,125,16)"></path>
<path d="M1 0A1 1 0 1 1 1 -0.0001" transform="matrix(3,0,0,3,314.8,319)" fill="rgb(193,125,16)"></path>
<path d="M1 0A1 1 0 1 1 1 -0.0001" transform="matrix(3,0,0,3,342.6667,319)" fill="#c17d10"></path>
<path d="M1 0A1 1 0 1 1 1 -0.0001" transform="matrix(3,0,0,3,370.5333,319)" fill="#c17d10"></path>
<path d="M1 0A1 1 0 1 1 1 -0.0001" transform="matrix(3,0,0,3,398.4,319)" fill="#c17d10"></path>
<path d="M1 0A1 1 0 1 1 1 -0.0001" transform="matrix(3,0,0,3,426.2667,319)" fill="#c17d10"></path>
<path d="M1 0A1 1 0 1 1 1 -0.0001" transform="matrix(3,0,0,3,454.1333,319)" fill="#c17d10"></path>
<path d="M1 0A1 1 0 1 1 1 -0.0001" transform="matrix(3,0,0,3,482,319)" fill="rgb(193,125,16)"></path>
<path d="M1 0A1 1 0 1 1 1 -0.0001" transform="matrix(3,0,0,3,509.8667,319)" fill="#c17d10"></path>
<path d="M1 0A1 1 0 1 1 1 -0.0001" transform="matrix(3,0,0,3,537.7333,319)" fill="rgb(193,125,16)"></path>
<path d="M1 0A1 1 0 1 1 1 -0.0001" transform="matrix(3,0,0,3,565.6,319)" fill="rgb(193,125,16)"></path>
<path d="M1 0A1 1 0 1 1 1 -0.0001" transform="matrix(3,0,0,3,593.4667,319)" fill="rgb(193,125,16)"></path>
<path d="M1 0A1 1 0 1 1 1 -0.0001" transform="matrix(3,0,0,3,621.3333,319)" fill="rgb(193,125,16)"></path>
<path d="M1 0A1 1 0 1 1 1 -0.0001" transform="matrix(3,0,0,3,677.0667,319)" fill="#c17d10"></path>
<path d="M1 0A1 1 0 1 1 1 -0.0001" transform="matrix(3,0,0,3,704.9333,319)" fill="rgb(193,125,16)"></path>
<path d="M1 0A1 1 0 1 1 1 -0.0001" transform="matrix(3,0,0,3,732.8,319)" fill="rgb(193,125,16)"></path>
<path d="M1 0A1 1 0 1 1 1 -0.0001" transform="matrix(3,0,0,3,760.6667,319)" fill="#c17d10"></path>
<path d="M1 0A1 1 0 1 1 1 -0.0001" transform="matrix(3,0,0,3,788.5333,319)" fill="rgb(193,125,16)"></path>
<path d="M1 0A1 1 0 1 1 1 -0.0001" transform="matrix(3,0,0,3,816.4,319)" fill="#c17d10"></path>
<path d="M1 0A1 1 0 1 1 1 -0.0001" transform="matrix(3,0,0,3,844.2667,319)" fill="rgb(193,125,16)"></path>
<path d="M1 0A1 1 0 1 1 1 -0.0001" transform="matrix(3,0,0,3,872.1334,319)" fill="rgb(193,125,16)"></path>
<path d="M1 0A1 1 0 1 1 1 -0.0001" transform="matrix(3,0,0,3,900,319)" fill="rgb(193,125,16)"></path>
<path d="M1 0A1 1 0 1 1 1 -0.0001" transform="matrix(3,0,0,3,286.9333,319)" fill="rgb(66,143,220)"></path>
<path d="M1 0A1 1 0 1 1 1 -0.0001" transform="matrix(3,0,0,3,649.2,319)" fill="rgb(66,143,220)"></path>
<path d="M1 0A1 1 0 1 1 1 -0.0001" transform="matrix(3,0,0,3,64,319)" fill="#428fdc"></path>
<path d="M1 0A1 1 0 1 1 1 -0.0001" transform="matrix(3,0,0,3,91.8667,319)" fill="#428fdc"></path>
<path d="M1 0A1 1 0 1 1 1 -0.0001" transform="matrix(3,0,0,3,119.7333,319)" fill="#428fdc"></path>
<path d="M1 0A1 1 0 1 1 1 -0.0001" transform="matrix(3,0,0,3,147.6,319)" fill="#428fdc"></path>
<path d="M1 0A1 1 0 1 1 1 -0.0001" transform="matrix(3,0,0,3,175.4667,319)" fill="#428fdc"></path>
<path d="M1 0A1 1 0 1 1 1 -0.0001" transform="matrix(3,0,0,3,203.3333,319)" fill="#428fdc"></path>
<path d="M1 0A1 1 0 1 1 1 -0.0001" transform="matrix(3,0,0,3,231.2,319)" fill="rgb(66,143,220)"></path>
<path d="M1 0A1 1 0 1 1 1 -0.0001" transform="matrix(3,0,0,3,259.0667,319)" fill="rgb(66,143,220)"></path>
<path d="M1 0A1 1 0 1 1 1 -0.0001" transform="matrix(3,0,0,3,314.8,319)" fill="rgb(66,143,220)"></path>
<path d="M1 0A1 1 0 1 1 1 -0.0001" transform="matrix(3,0,0,3,342.6667,319)" fill="#428fdc"></path>
<path d="M1 0A1 1 0 1 1 1 -0.0001" transform="matrix(3,0,0,3,370.5333,319)" fill="#428fdc"></path>
<path d="M1 0A1 1 0 1 1 1 -0.0001" transform="matrix(3,0,0,3,398.4,319)" fill="#428fdc"></path>
<path d="M1 0A1 1 0 1 1 1 -0.0001" transform="matrix(3,0,0,3,426.2667,319)" fill="#428fdc"></path>
<path d="M1 0A1 1 0 1 1 1 -0.0001" transform="matrix(3,0,0,3,454.1333,319)" fill="#428fdc"></path>
<path d="M1 0A1 1 0 1 1 1 -0.0001" transform="matrix(3,0,0,3,482,319)" fill="rgb(66,143,220)"></path>
<path d="M1 0A1 1 0 1 1 1 -0.0001" transform="matrix(3,0,0,3,509.8667,319)" fill="#428fdc"></path>
<path d="M1 0A1 1 0 1 1 1 -0.0001" transform="matrix(3,0,0,3,537.7333,319)" fill="rgb(66,143,220)"></path>
<path d="M1 0A1 1 0 1 1 1 -0.0001" transform="matrix(3,0,0,3,565.6,319)" fill="rgb(66,143,220)"></path>
<path d="M1 0A1 1 0 1 1 1 -0.0001" transform="matrix(3,0,0,3,593.4667,319)" fill="rgb(66,143,220)"></path>
<path d="M1 0A1 1 0 1 1 1 -0.0001" transform="matrix(3,0,0,3,621.3333,319)" fill="rgb(66,143,220)"></path>
<path d="M1 0A1 1 0 1 1 1 -0.0001" transform="matrix(3,0,0,3,677.0667,319)" fill="#428fdc"></path>
<path d="M1 0A1 1 0 1 1 1 -0.0001" transform="matrix(3,0,0,3,704.9333,319)" fill="rgb(66,143,220)"></path>
<path d="M1 0A1 1 0 1 1 1 -0.0001" transform="matrix(3,0,0,3,732.8,319)" fill="rgb(66,143,220)"></path>
<path d="M1 0A1 1 0 1 1 1 -0.0001" transform="matrix(3,0,0,3,760.6667,319)" fill="#428fdc"></path>
<path d="M1 0A1 1 0 1 1 1 -0.0001" transform="matrix(3,0,0,3,788.5333,319)" fill="rgb(66,143,220)"></path>
<path d="M1 0A1 1 0 1 1 1 -0.0001" transform="matrix(3,0,0,3,816.4,319)" fill="#428fdc"></path>
<path d="M1 0A1 1 0 1 1 1 -0.0001" transform="matrix(3,0,0,3,844.2667,319)" fill="rgb(66,143,220)"></path>
<path d="M1 0A1 1 0 1 1 1 -0.0001" transform="matrix(3,0,0,3,872.1334,319)" fill="rgb(66,143,220)"></path>
<path d="M1 0A1 1 0 1 1 1 -0.0001" transform="matrix(3,0,0,3,900,319)" fill="rgb(66,143,220)"></path>
<path d="M1 0A1 1 0 1 1 1 -0.0001" transform="matrix(3,0,0,3,286.9333,319)" fill="rgb(134,134,134)"></path>
<path d="M1 0A1 1 0 1 1 1 -0.0001" transform="matrix(3,0,0,3,649.2,319)" fill="rgb(134,134,134)"></path>
<path d="M1 0A1 1 0 1 1 1 -0.0001" transform="matrix(3,0,0,3,64,319)" fill="#868686"></path>
<path d="M1 0A1 1 0 1 1 1 -0.0001" transform="matrix(3,0,0,3,91.8667,319)" fill="#868686"></path>
<path d="M1 0A1 1 0 1 1 1 -0.0001" transform="matrix(3,0,0,3,119.7333,319)" fill="#868686"></path>
<path d="M1 0A1 1 0 1 1 1 -0.0001" transform="matrix(3,0,0,3,147.6,319)" fill="#868686"></path>
<path d="M1 0A1 1 0 1 1 1 -0.0001" transform="matrix(3,0,0,3,175.4667,319)" fill="#868686"></path>
<path d="M1 0A1 1 0 1 1 1 -0.0001" transform="matrix(3,0,0,3,203.3333,319)" fill="#868686"></path>
<path d="M1 0A1 1 0 1 1 1 -0.0001" transform="matrix(3,0,0,3,231.2,319)" fill="rgb(134,134,134)"></path>
<path d="M1 0A1 1 0 1 1 1 -0.0001" transform="matrix(3,0,0,3,259.0667,319)" fill="rgb(134,134,134)"></path>
<path d="M1 0A1 1 0 1 1 1 -0.0001" transform="matrix(3,0,0,3,314.8,319)" fill="rgb(134,134,134)"></path>
<path d="M1 0A1 1 0 1 1 1 -0.0001" transform="matrix(3,0,0,3,342.6667,319)" fill="#868686"></path>
<path d="M1 0A1 1 0 1 1 1 -0.0001" transform="matrix(3,0,0,3,370.5333,319)" fill="#868686"></path>
<path d="M1 0A1 1 0 1 1 1 -0.0001" transform="matrix(3,0,0,3,398.4,319)" fill="#868686"></path>
<path d="M1 0A1 1 0 1 1 1 -0.0001" transform="matrix(3,0,0,3,426.2667,319)" fill="#868686"></path>
<path d="M1 0A1 1 0 1 1 1 -0.0001" transform="matrix(3,0,0,3,454.1333,319)" fill="#868686"></path>
<path d="M1 0A1 1 0 1 1 1 -0.0001" transform="matrix(3,0,0,3,482,319)" fill="rgb(134,134,134)"></path>
<path d="M1 0A1 1 0 1 1 1 -0.0001" transform="matrix(3,0,0,3,509.8667,319)" fill="#868686"></path>
<path d="M1 0A1 1 0 1 1 1 -0.0001" transform="matrix(3,0,0,3,537.7333,319)" fill="rgb(134,134,134)"></path>
<path d="M1 0A1 1 0 1 1 1 -0.0001" transform="matrix(3,0,0,3,565.6,319)" fill="rgb(134,134,134)"></path>
<path d="M1 0A1 1 0 1 1 1 -0.0001" transform="matrix(3,0,0,3,593.4667,319)" fill="rgb(134,134,134)"></path>
<path d="M1 0A1 1 0 1 1 1 -0.0001" transform="matrix(3,0,0,3,621.3333,319)" fill="rgb(134,134,134)"></path>
<path d="M1 0A1 1 0 1 1 1 -0.0001" transform="matrix(3,0,0,3,677.0667,319)" fill="#868686"></path>
<path d="M1 0A1 1 0 1 1 1 -0.0001" transform="matrix(3,0,0,3,704.9333,319)" fill="rgb(134,134,134)"></path>
<path d="M1 0A1 1 0 1 1 1 -0.0001" transform="matrix(3,0,0,3,732.8,319)" fill="rgb(134,134,134)"></path>
<path d="M1 0A1 1 0 1 1 1 -0.0001" transform="matrix(3,0,0,3,760.6667,319)" fill="#868686"></path>
<path d="M1 0A1 1 0 1 1 1 -0.0001" transform="matrix(3,0,0,3,788.5333,319)" fill="rgb(134,134,134)"></path>
<path d="M1 0A1 1 0 1 1 1 -0.0001" transform="matrix(3,0,0,3,816.4,319)" fill="#868686"></path>
<path d="M1 0A1 1 0 1 1 1 -0.0001" transform="matrix(3,0,0,3,844.2667,319)" fill="rgb(134,134,134)"></path>
<path d="M1 0A1 1 0 1 1 1 -0.0001" transform="matrix(3,0,0,3,872.1334,319)" fill="rgb(134,134,134)"></path>
<path d="M1 0A1 1 0 1 1 1 -0.0001" transform="matrix(3,0,0,3,900,270.8333)" fill="rgb(134,134,134)"></path>
<path d="M0 0l836 0l0 30l-836 0Z" transform="matrix(1,0,0,-1,66.5,378)" fill="rgb(47,69,84)" fill-opacity="0"></path>
<g clip-path="url(#zr0-c6)">
<polygon points="836 0 0 0 0 5.6 8.4 5.6 16.7 5.6 25.1 5.6 33.4 5.6 41.8 5.6 50.2 5.6 58.5 5.6 66.9 5.6 75.2 5.6 83.6 5.6 92 5.6 100.3 5.6 108.7 5.6 117 5.6 125.4 5.6 133.8 5.6 142.1 5.6 150.5 5.6 158.8 5.6 167.2 5.6 175.6 5.6 183.9 5.6 192.3 5.6 200.6 5.6 209 5.6 217.4 5.6 225.7 5.6 234.1 5.6 242.4 5.6 250.8 5.6 259.2 5.6 267.5 5.6 275.9 5.6 284.2 5.6 292.6 5.6 301 5.6 309.3 5.6 317.7 5.6 326 5.6 334.4 5.6 342.8 5.6 351.1 5.6 359.5 5.6 367.8 5.6 376.2 5.6 384.6 5.6 392.9 5.6 401.3 5.6 409.6 5.6 418 5.6 426.4 5.6 434.7 5.6 443.1 5.6 451.4 5.6 459.8 5.6 468.2 5.6 476.5 5.6 484.9 5.6 493.2 5.6 501.6 5.6 510 5.6 518.3 5.6 526.7 5.6 535 5.6 543.4 5.6 551.8 5.6 560.1 5.6 568.5 5.6 576.8 5.6 585.2 5.6 593.6 5.6 601.9 5.6 610.3 5.6 618.6 5.6 627 5.6 635.4 5.6 643.7 5.6 652.1 5.6 660.4 5.6 668.8 5.6 677.2 5.6 685.5 5.6 693.9 5.6 702.2 5.6 710.6 5.6 719 5.6 727.3 5.6 735.7 5.6 744 5.6 752.4 5.6 760.8 5.6 769.1 5.6 777.5 5.6 785.8 5.6 794.2 5.6 802.6 5.6 810.9 5.6 819.3 5.6 827.6 5.6 836 24.4" transform="matrix(1,0,0,-1,66.5,378)" fill="#d2dbee" fill-opacity="0.2"></polygon>
</g>
<g clip-path="url(#zr0-c7)">
<polygon points="836 0 0 0 0 5.6 8.4 5.6 16.7 5.6 25.1 5.6 33.4 5.6 41.8 5.6 50.2 5.6 58.5 5.6 66.9 5.6 75.2 5.6 83.6 5.6 92 5.6 100.3 5.6 108.7 5.6 117 5.6 125.4 5.6 133.8 5.6 142.1 5.6 150.5 5.6 158.8 5.6 167.2 5.6 175.6 5.6 183.9 5.6 192.3 5.6 200.6 5.6 209 5.6 217.4 5.6 225.7 5.6 234.1 5.6 242.4 5.6 250.8 5.6 259.2 5.6 267.5 5.6 275.9 5.6 284.2 5.6 292.6 5.6 301 5.6 309.3 5.6 317.7 5.6 326 5.6 334.4 5.6 342.8 5.6 351.1 5.6 359.5 5.6 367.8 5.6 376.2 5.6 384.6 5.6 392.9 5.6 401.3 5.6 409.6 5.6 418 5.6 426.4 5.6 434.7 5.6 443.1 5.6 451.4 5.6 459.8 5.6 468.2 5.6 476.5 5.6 484.9 5.6 493.2 5.6 501.6 5.6 510 5.6 518.3 5.6 526.7 5.6 535 5.6 543.4 5.6 551.8 5.6 560.1 5.6 568.5 5.6 576.8 5.6 585.2 5.6 593.6 5.6 601.9 5.6 610.3 5.6 618.6 5.6 627 5.6 635.4 5.6 643.7 5.6 652.1 5.6 660.4 5.6 668.8 5.6 677.2 5.6 685.5 5.6 693.9 5.6 702.2 5.6 710.6 5.6 719 5.6 727.3 5.6 735.7 5.6 744 5.6 752.4 5.6 760.8 5.6 769.1 5.6 777.5 5.6 785.8 5.6 794.2 5.6 802.6 5.6 810.9 5.6 819.3 5.6 827.6 5.6 836 24.4" transform="matrix(1,0,0,-1,66.5,378)" fill="#8fb0f7" fill-opacity="0.2"></polygon>
</g>
<g clip-path="url(#zr0-c8)">
<polygon points="836 0 0 0 0 5.6 8.4 5.6 16.7 5.6 25.1 5.6 33.4 5.6 41.8 5.6 50.2 5.6 58.5 5.6 66.9 5.6 75.2 5.6 83.6 5.6 92 5.6 100.3 5.6 108.7 5.6 117 5.6 125.4 5.6 133.8 5.6 142.1 5.6 150.5 5.6 158.8 5.6 167.2 5.6 175.6 5.6 183.9 5.6 192.3 5.6 200.6 5.6 209 5.6 217.4 5.6 225.7 5.6 234.1 5.6 242.4 5.6 250.8 5.6 259.2 5.6 267.5 5.6 275.9 5.6 284.2 5.6 292.6 5.6 301 5.6 309.3 5.6 317.7 5.6 326 5.6 334.4 5.6 342.8 5.6 351.1 5.6 359.5 5.6 367.8 5.6 376.2 5.6 384.6 5.6 392.9 5.6 401.3 5.6 409.6 5.6 418 5.6 426.4 5.6 434.7 5.6 443.1 5.6 451.4 5.6 459.8 5.6 468.2 5.6 476.5 5.6 484.9 5.6 493.2 5.6 501.6 5.6 510 5.6 518.3 5.6 526.7 5.6 535 5.6 543.4 5.6 551.8 5.6 560.1 5.6 568.5 5.6 576.8 5.6 585.2 5.6 593.6 5.6 601.9 5.6 610.3 5.6 618.6 5.6 627 5.6 635.4 5.6 643.7 5.6 652.1 5.6 660.4 5.6 668.8 5.6 677.2 5.6 685.5 5.6 693.9 5.6 702.2 5.6 710.6 5.6 719 5.6 727.3 5.6 735.7 5.6 744 5.6 752.4 5.6 760.8 5.6 769.1 5.6 777.5 5.6 785.8 5.6 794.2 5.6 802.6 5.6 810.9 5.6 819.3 5.6 827.6 5.6 836 24.4" transform="matrix(1,0,0,-1,66.5,378)" fill="#d2dbee" fill-opacity="0.2"></polygon>
</g>
<g clip-path="url(#zr0-c6)">
<polyline points="0 5.6 8.4 5.6 16.7 5.6 25.1 5.6 33.4 5.6 41.8 5.6 50.2 5.6 58.5 5.6 66.9 5.6 75.2 5.6 83.6 5.6 92 5.6 100.3 5.6 108.7 5.6 117 5.6 125.4 5.6 133.8 5.6 142.1 5.6 150.5 5.6 158.8 5.6 167.2 5.6 175.6 5.6 183.9 5.6 192.3 5.6 200.6 5.6 209 5.6 217.4 5.6 225.7 5.6 234.1 5.6 242.4 5.6 250.8 5.6 259.2 5.6 267.5 5.6 275.9 5.6 284.2 5.6 292.6 5.6 301 5.6 309.3 5.6 317.7 5.6 326 5.6 334.4 5.6 342.8 5.6 351.1 5.6 359.5 5.6 367.8 5.6 376.2 5.6 384.6 5.6 392.9 5.6 401.3 5.6 409.6 5.6 418 5.6 426.4 5.6 434.7 5.6 443.1 5.6 451.4 5.6 459.8 5.6 468.2 5.6 476.5 5.6 484.9 5.6 493.2 5.6 501.6 5.6 510 5.6 518.3 5.6 526.7 5.6 535 5.6 543.4 5.6 551.8 5.6 560.1 5.6 568.5 5.6 576.8 5.6 585.2 5.6 593.6 5.6 601.9 5.6 610.3 5.6 618.6 5.6 627 5.6 635.4 5.6 643.7 5.6 652.1 5.6 660.4 5.6 668.8 5.6 677.2 5.6 685.5 5.6 693.9 5.6 702.2 5.6 710.6 5.6 719 5.6 727.3 5.6 735.7 5.6 744 5.6 752.4 5.6 760.8 5.6 769.1 5.6 777.5 5.6 785.8 5.6 794.2 5.6 802.6 5.6 810.9 5.6 819.3 5.6 827.6 5.6 836 24.4" transform="matrix(1,0,0,-1,66.5,378)" fill="none" stroke="var(--gl-chart-axis-line-color)" stroke-width="2"></polyline>
</g>
<g clip-path="url(#zr0-c7)">
<polyline points="0 5.6 8.4 5.6 16.7 5.6 25.1 5.6 33.4 5.6 41.8 5.6 50.2 5.6 58.5 5.6 66.9 5.6 75.2 5.6 83.6 5.6 92 5.6 100.3 5.6 108.7 5.6 117 5.6 125.4 5.6 133.8 5.6 142.1 5.6 150.5 5.6 158.8 5.6 167.2 5.6 175.6 5.6 183.9 5.6 192.3 5.6 200.6 5.6 209 5.6 217.4 5.6 225.7 5.6 234.1 5.6 242.4 5.6 250.8 5.6 259.2 5.6 267.5 5.6 275.9 5.6 284.2 5.6 292.6 5.6 301 5.6 309.3 5.6 317.7 5.6 326 5.6 334.4 5.6 342.8 5.6 351.1 5.6 359.5 5.6 367.8 5.6 376.2 5.6 384.6 5.6 392.9 5.6 401.3 5.6 409.6 5.6 418 5.6 426.4 5.6 434.7 5.6 443.1 5.6 451.4 5.6 459.8 5.6 468.2 5.6 476.5 5.6 484.9 5.6 493.2 5.6 501.6 5.6 510 5.6 518.3 5.6 526.7 5.6 535 5.6 543.4 5.6 551.8 5.6 560.1 5.6 568.5 5.6 576.8 5.6 585.2 5.6 593.6 5.6 601.9 5.6 610.3 5.6 618.6 5.6 627 5.6 635.4 5.6 643.7 5.6 652.1 5.6 660.4 5.6 668.8 5.6 677.2 5.6 685.5 5.6 693.9 5.6 702.2 5.6 710.6 5.6 719 5.6 727.3 5.6 735.7 5.6 744 5.6 752.4 5.6 760.8 5.6 769.1 5.6 777.5 5.6 785.8 5.6 794.2 5.6 802.6 5.6 810.9 5.6 819.3 5.6 827.6 5.6 836 24.4" transform="matrix(1,0,0,-1,66.5,378)" fill="none" stroke="#8fb0f7" stroke-width="0.5"></polyline>
</g>
<g clip-path="url(#zr0-c8)">
<polyline points="0 5.6 8.4 5.6 16.7 5.6 25.1 5.6 33.4 5.6 41.8 5.6 50.2 5.6 58.5 5.6 66.9 5.6 75.2 5.6 83.6 5.6 92 5.6 100.3 5.6 108.7 5.6 117 5.6 125.4 5.6 133.8 5.6 142.1 5.6 150.5 5.6 158.8 5.6 167.2 5.6 175.6 5.6 183.9 5.6 192.3 5.6 200.6 5.6 209 5.6 217.4 5.6 225.7 5.6 234.1 5.6 242.4 5.6 250.8 5.6 259.2 5.6 267.5 5.6 275.9 5.6 284.2 5.6 292.6 5.6 301 5.6 309.3 5.6 317.7 5.6 326 5.6 334.4 5.6 342.8 5.6 351.1 5.6 359.5 5.6 367.8 5.6 376.2 5.6 384.6 5.6 392.9 5.6 401.3 5.6 409.6 5.6 418 5.6 426.4 5.6 434.7 5.6 443.1 5.6 451.4 5.6 459.8 5.6 468.2 5.6 476.5 5.6 484.9 5.6 493.2 5.6 501.6 5.6 510 5.6 518.3 5.6 526.7 5.6 535 5.6 543.4 5.6 551.8 5.6 560.1 5.6 568.5 5.6 576.8 5.6 585.2 5.6 593.6 5.6 601.9 5.6 610.3 5.6 618.6 5.6 627 5.6 635.4 5.6 643.7 5.6 652.1 5.6 660.4 5.6 668.8 5.6 677.2 5.6 685.5 5.6 693.9 5.6 702.2 5.6 710.6 5.6 719 5.6 727.3 5.6 735.7 5.6 744 5.6 752.4 5.6 760.8 5.6 769.1 5.6 777.5 5.6 785.8 5.6 794.2 5.6 802.6 5.6 810.9 5.6 819.3 5.6 827.6 5.6 836 24.4" transform="matrix(1,0,0,-1,66.5,378)" fill="none" stroke="var(--gl-chart-axis-line-color)" stroke-width="2"></polyline>
</g>
<path d="M0 0l836 0l0 30l-836 0Z" transform="matrix(1,0,0,-1,66.5,378)" fill="none"></path>
<path d="M585.2 0l250.8 0l0 30l-250.8 0Z" transform="matrix(1,0,0,-1,66.5,378)" fill="var(--gl-chart-zoom-filler-color)"></path>
<path d="M3.5 0.5L832.5 0.5A3 3 0 0 1 835.5 3.5L835.5 26.5A3 3 0 0 1 832.5 29.5L3.5 29.5A3 3 0 0 1 0.5 26.5L0.5 3.5A3 3 0 0 1 3.5 0.5" transform="matrix(1,0,0,-1,66.5,378)" fill="rgb(0,0,0)" fill-opacity="0" stroke="none"></path>
<path d="M0 2A1 1 0 1 1 0 0A1 1 0 1 1 0 2ZM-0.2857 0.4286A0.1429 0.1429 0 0 0 -0.4286 0.5714L-0.4286 1.4286A0.1429 0.1429 0 0 0 -0.1429 1.4286L-0.1429 0.5714A0.1429 0.1429 0 0 0 -0.2857 0.4286ZM0.2857 0.4286A0.1429 0.1429 0 0 0 0.1429 0.5714L0.1429 1.4286A0.1429 0.1429 0 0 0 0.4286 1.4286L0.4286 0.5714A0.1429 0.1429 0 0 0 0.2857 0.4286Z" transform="matrix(7.5,0,0,-7.5,652.7,370.5)" fill="var(--gl-chart-zoom-handle-color)" stroke="none" stroke-width="0.13333333333333333"></path>
<path d="M0 2A1 1 0 1 1 0 0A1 1 0 1 1 0 2ZM-0.2857 0.4286A0.1429 0.1429 0 0 0 -0.4286 0.5714L-0.4286 1.4286A0.1429 0.1429 0 0 0 -0.1429 1.4286L-0.1429 0.5714A0.1429 0.1429 0 0 0 -0.2857 0.4286ZM0.2857 0.4286A0.1429 0.1429 0 0 0 0.1429 0.5714L0.1429 1.4286A0.1429 0.1429 0 0 0 0.4286 1.4286L0.4286 0.5714A0.1429 0.1429 0 0 0 0.2857 0.4286Z" transform="matrix(7.5,0,0,-7.5,901.5,370.5)" fill="var(--gl-chart-zoom-handle-color)" stroke="none" stroke-width="0.13333333333333333"></path>
<defs >
<clipPath id="zr0-c0">
<path d="M63 29l838 0l0 291l-838 0Z" fill="#000"></path>
</clipPath>
<clipPath id="zr0-c1">
<path d="M63 29l838 0l0 291l-838 0Z" fill="#000"></path>
</clipPath>
<clipPath id="zr0-c2">
<path d="M63 29l838 0l0 291l-838 0Z" fill="#000"></path>
</clipPath>
<clipPath id="zr0-c3">
<path d="M63 29l838 0l0 291l-838 0Z" fill="#000"></path>
</clipPath>
<clipPath id="zr0-c4">
<path d="M63 29l838 0l0 291l-838 0Z" fill="#000"></path>
</clipPath>
<clipPath id="zr0-c5">
<path d="M63 29l838 0l0 291l-838 0Z" fill="#000"></path>
</clipPath>
<clipPath id="zr0-c6">
<path d="M0 0l585.2 0l0 30l-585.2 0Z" transform="matrix(1,0,0,-1,66.5,378)" fill="#000"></path>
</clipPath>
<clipPath id="zr0-c7">
<path d="M585.2 0l250.8 0l0 30l-250.8 0Z" transform="matrix(1,0,0,-1,66.5,378)" fill="#000"></path>
</clipPath>
<clipPath id="zr0-c8">
<path d="M836 0l0 0l0 30l0 0Z" transform="matrix(1,0,0,-1,66.5,378)" fill="#000"></path>
</clipPath>
</defs>
</svg>